<?xml version="1.0" encoding="UTF-8" standalone="yes"?><svg xmlns="http://www.w3.org/2000/svg" xmlns:xlink="http://www.w3.org/1999/xlink" height="1095pt" style="width:758px;height:1095px;" version="1.1" viewBox="0 0 758 1095" width="758pt"><defs><filter height="300%" id="f1" width="300%" x="-1" y="-1"><feGaussianBlur result="blurOut" stdDeviation="2.0"/><feColorMatrix in="blurOut" result="blurOut2" type="matrix" values="0 0 0 0 0 0 0 0 0 0 0 0 0 0 0 0 0 0 .4 0"/><feOffset dx="4.0" dy="4.0" in="blurOut2" result="blurOut3"/><feBlend in="SourceGraphic" in2="blurOut3" mode="normal"/></filter></defs><g><polygon fill="#FFFFFF" filter="url(#f1)" points="22,110,113,110,120,132.2969,683,132.2969,683,1030,22,1030,22,110" style="stroke: #000000; stroke-width: 2.0;"/><line style="stroke: #000000; stroke-width: 2.0;" x1="22" x2="120" y1="132.2969" y2="132.2969"/><text fill="#000000" font-family="sans-serif" font-size="14" font-weight="bold" lengthAdjust="spacingAndGlyphs" textLength="85" x="25" y="127">Work Loop</text><polygon fill="#FFFFFF" filter="url(#f1)" points="425,392,595,392,602,414.2969,606,414.2969,606,478,425,478,425,392" style="stroke: #000000; stroke-width: 2.0;"/><line style="stroke: #000000; stroke-width: 2.0;" x1="425" x2="602" y1="414.2969" y2="414.2969"/><text fill="#000000" font-family="sans-serif" font-size="14" font-weight="bold" lengthAdjust="spacingAndGlyphs" textLength="164" x="428" y="409">Adjust Interval Width</text><polygon fill="#FFFFFF" filter="url(#f1)" points="311,528,416,528,423,550.2969,627,550.2969,627,746,311,746,311,528" style="stroke: #000000; stroke-width: 2.0;"/><line style="stroke: #000000; stroke-width: 2.0;" x1="311" x2="423" y1="550.2969" y2="550.2969"/><text fill="#000000" font-family="sans-serif" font-size="14" font-weight="bold" lengthAdjust="spacingAndGlyphs" textLength="99" x="314" y="545">New Interval</text><polygon fill="#FFFFFF" filter="url(#f1)" points="46,780,187,780,194,802.2969,627,802.2969,627,866,46,866,46,780" style="stroke: #000000; stroke-width: 2.0;"/><line style="stroke: #000000; stroke-width: 2.0;" x1="46" x2="194" y1="802.2969" y2="802.2969"/><text fill="#000000" font-family="sans-serif" font-size="14" font-weight="bold" lengthAdjust="spacingAndGlyphs" textLength="135" x="49" y="797">Main Solver Loop</text><rect fill="#FEFECE" filter="url(#f1)" height="33.9688" rx="12.5" ry="12.5" style="stroke: #A80036; stroke-width: 1.5;" width="122" x="467" y="146"/><text fill="#000000" font-family="sans-serif" font-size="12" lengthAdjust="spacingAndGlyphs" textLength="40" x="477" y="168">msg =</text><text fill="#008000" font-family="sans-serif" font-size="12" font-weight="bold" lengthAdjust="spacingAndGlyphs" textLength="9" x="521" y="168">C</text><text fill="#000000" font-family="sans-serif" font-size="12" lengthAdjust="spacingAndGlyphs" textLength="49" x="530" y="168">.receive</text><polygon fill="#FEFECE" filter="url(#f1)" points="449,227,461,239,449,251,437,239,449,227" style="stroke: #A80036; stroke-width: 1.5;"/><rect fill="#FEFECE" filter="url(#f1)" height="33.9688" rx="12.5" ry="12.5" style="stroke: #A80036; stroke-width: 1.5;" width="95" x="549.75" y="222"/><text fill="#FFA500" font-family="sans-serif" font-size="12" lengthAdjust="spacingAndGlyphs" textLength="23" x="559.75" y="244">flag</text><text fill="#000000" font-family="sans-serif" font-size="12" lengthAdjust="spacingAndGlyphs" textLength="48" x="586.75" y="244">= failed</text><rect fill="#FEFECE" filter="url(#f1)" height="33.9688" rx="12.5" ry="12.5" style="stroke: #A80036; stroke-width: 1.5;" width="173" x="471.75" y="904"/><text fill="#008000" font-family="sans-serif" font-size="12" font-weight="bold" lengthAdjust="spacingAndGlyphs" textLength="9" x="481.75" y="926">C</text><text fill="#000000" font-family="sans-serif" font-size="12" lengthAdjust="spacingAndGlyphs" textLength="77" x="490.75" y="926">.send(value,</text><text fill="#FF0000" font-family="sans-serif" font-size="12" lengthAdjust="spacingAndGlyphs" textLength="27" x="571.75" y="926">time</text><text fill="#000000" font-family="sans-serif" font-size="12" lengthAdjust="spacingAndGlyphs" textLength="4" x="598.75" y="926">,</text><text fill="#FFA500" font-family="sans-serif" font-size="12" lengthAdjust="spacingAndGlyphs" textLength="23" x="606.75" y="926">flag</text><text fill="#000000" font-family="sans-serif" font-size="12" lengthAdjust="spacingAndGlyphs" textLength="5" x="629.75" y="926">)</text><polygon fill="#FEFECE" filter="url(#f1)" points="402,314,414,326,402,338,390,326,402,314" style="stroke: #A80036; stroke-width: 1.5;"/><polygon fill="#FEFECE" filter="url(#f1)" points="376,433,388,445,376,457,364,445,376,433" style="stroke: #A80036; stroke-width: 1.5;"/><polygon fill="#FEFECE" filter="url(#f1)" points="473,985,485,997,473,1009,461,997,473,985" style="stroke: #A80036; stroke-width: 1.5;"/><rect fill="#FEFECE" filter="url(#f1)" height="33.9688" rx="12.5" ry="12.5" style="stroke: #A80036; stroke-width: 1.5;" width="137" x="529.75" y="980"/><text fill="#000000" font-family="sans-serif" font-size="12" lengthAdjust="spacingAndGlyphs" textLength="117" x="539.75" y="1002">next work iteration</text><rect fill="#000000" filter="url(#f1)" height="8" style="stroke: none; stroke-width: 1.0;" width="80" x="190" y="993"/><rect fill="#FEFECE" filter="url(#f1)" height="33.9688" rx="12.5" ry="12.5" style="stroke: #A80036; stroke-width: 1.5;" width="78" x="465" y="428"/><text fill="#000000" font-family="sans-serif" font-size="12" lengthAdjust="spacingAndGlyphs" textLength="39" x="475" y="450">adjust</text><text fill="#000000" font-family="sans-serif" font-size="12" font-weight="bold" lengthAdjust="spacingAndGlyphs" textLength="15" x="518" y="450">dt</text><rect fill="#FEFECE" filter="url(#f1)" height="33.9688" rx="12.5" ry="12.5" style="stroke: #A80036; stroke-width: 1.5;" width="94" x="332" y="564"/><text fill="#000000" font-family="sans-serif" font-size="12" lengthAdjust="spacingAndGlyphs" textLength="74" x="342" y="586">_init_state()</text><rect fill="#FEFECE" filter="url(#f1)" height="33.9688" rx="12.5" ry="12.5" style="stroke: #A80036; stroke-width: 1.5;" width="107" x="326.75" y="643"/><text fill="#000000" font-family="sans-serif" font-size="12" lengthAdjust="spacingAndGlyphs" textLength="87" x="336.75" y="665">_init_interval()</text><polygon fill="#FBFB77" filter="url(#f1)" points="473.75,640,473.75,680.2656,610.75,680.2656,610.75,650,600.75,640,473.75,640" style="stroke: #A80036; stroke-width: 1.0;"/><polygon fill="#FBFB77" points="473.75,640,473.75,656,433.473,660,473.75,664,473.75,680.2656,610.75,680.2656,610.75,650,600.75,640,473.75,640" style="stroke: #A80036; stroke-width: 1.0;"/><line style="stroke: #A80036; stroke-width: 1.0;" x1="600.75" x2="600.75" y1="640" y2="650"/><line style="stroke: #A80036; stroke-width: 1.0;" x1="610.75" x2="600.75" y1="650" y2="650"/><text fill="#000000" font-family="sans-serif" font-size="13" lengthAdjust="spacingAndGlyphs" textLength="64" x="479.75" y="658">computes</text><text fill="#FF0000" font-family="sans-serif" font-size="13" lengthAdjust="spacingAndGlyphs" textLength="29" x="547.75" y="658">time</text><text fill="#000000" font-family="sans-serif" font-size="13" lengthAdjust="spacingAndGlyphs" textLength="15" x="580.75" y="658">as</text><text fill="#000000" font-family="sans-serif" font-size="13" lengthAdjust="spacingAndGlyphs" textLength="76" x="479.75" y="673.1328">msg.time +</text><text fill="#000000" font-family="sans-serif" font-size="13" font-weight="bold" lengthAdjust="spacingAndGlyphs" textLength="16" x="559.75" y="673.1328">dt</text><rect fill="#000000" filter="url(#f1)" height="8" style="stroke: none; stroke-width: 1.0;" width="80" x="333" y="722"/><rect fill="#FEFECE" filter="url(#f1)" height="33.9688" rx="12.5" ry="12.5" style="stroke: #A80036; stroke-width: 1.5;" width="125" x="199.75" y="816"/><text fill="#000000" font-family="sans-serif" font-size="12" lengthAdjust="spacingAndGlyphs" textLength="105" x="209.75" y="838">for all time steps</text><rect fill="#FEFECE" filter="url(#f1)" height="33.9688" rx="12.5" ry="12.5" style="stroke: #A80036; stroke-width: 1.5;" width="98" x="62.5" y="816"/><text fill="#000000" font-family="sans-serif" font-size="12" lengthAdjust="spacingAndGlyphs" textLength="78" x="72.5" y="838">for all nodes</text><rect fill="#FEFECE" filter="url(#f1)" height="33.9688" rx="12.5" ry="12.5" style="stroke: #A80036; stroke-width: 1.5;" width="92" x="399" y="816"/><text fill="#000000" font-family="sans-serif" font-size="12" lengthAdjust="spacingAndGlyphs" textLength="45" x="409" y="838">update</text><text fill="#FFA500" font-family="sans-serif" font-size="12" lengthAdjust="spacingAndGlyphs" textLength="23" x="458" y="838">flag</text><rect fill="#000000" filter="url(#f1)" height="8" style="stroke: none; stroke-width: 1.0;" width="80" x="531" y="829"/><ellipse cx="145" cy="32" fill="#000000" filter="url(#f1)" rx="10" ry="10" style="stroke: none; stroke-width: 1.0;"/><rect fill="#FEFECE" filter="url(#f1)" height="47.9375" rx="12.5" ry="12.5" style="stroke: #A80036; stroke-width: 1.5;" width="242" x="195.5" y="8"/><text fill="#0000FF" font-family="sans-serif" font-size="12" font-weight="bold" lengthAdjust="spacingAndGlyphs" textLength="9" x="205.5" y="30">P</text><text fill="#000000" font-family="sans-serif" font-size="12" lengthAdjust="spacingAndGlyphs" textLength="118" x="214.5" y="30">roblem, Integrator,</text><text fill="#008000" font-family="sans-serif" font-size="12" font-weight="bold" lengthAdjust="spacingAndGlyphs" textLength="9" x="336.5" y="30">C</text><text fill="#000000" font-family="sans-serif" font-size="12" lengthAdjust="spacingAndGlyphs" textLength="82" x="345.5" y="30">ommunicator</text><text fill="#000000" font-family="sans-serif" font-size="12" lengthAdjust="spacingAndGlyphs" textLength="90" x="271.5" y="43.9688">have been set</text><rect fill="#FEFECE" filter="url(#f1)" height="33.9688" rx="12.5" ry="12.5" style="stroke: #A80036; stroke-width: 1.5;" width="103" x="476.75" y="15"/><text fill="#000000" font-family="sans-serif" font-size="12" lengthAdjust="spacingAndGlyphs" textLength="59" x="486.75" y="37">run(Core,</text><text fill="#000000" font-family="sans-serif" font-size="12" font-weight="bold" lengthAdjust="spacingAndGlyphs" textLength="15" x="549.75" y="37">dt</text><text fill="#000000" font-family="sans-serif" font-size="12" lengthAdjust="spacingAndGlyphs" textLength="5" x="564.75" y="37">)</text><polygon fill="#FBFB77" filter="url(#f1)" points="619,12,619,52.2656,749,52.2656,749,22,739,12,619,12" style="stroke: #A80036; stroke-width: 1.0;"/><polygon fill="#FBFB77" points="619,12,619,28,579.492,32,619,36,619,52.2656,749,52.2656,749,22,739,12,619,12" style="stroke: #A80036; stroke-width: 1.0;"/><line style="stroke: #A80036; stroke-width: 1.0;" x1="739" x2="739" y1="12" y2="22"/><line style="stroke: #A80036; stroke-width: 1.0;" x1="749" x2="739" y1="22" y2="22"/><text fill="#000000" font-family="sans-serif" font-size="13" lengthAdjust="spacingAndGlyphs" textLength="109" x="625" y="30">prev_flag = none</text><text fill="#FFA500" font-family="sans-serif" font-size="13" lengthAdjust="spacingAndGlyphs" textLength="23" x="625" y="45.1328">flag</text><text fill="#000000" font-family="sans-serif" font-size="13" lengthAdjust="spacingAndGlyphs" textLength="47" x="652" y="45.1328">= none</text><ellipse cx="230" cy="1078" fill="none" filter="url(#f1)" rx="10" ry="10" style="stroke: #000000; stroke-width: 1.0;"/><ellipse cx="230.5" cy="1078.5" fill="#000000" rx="6" ry="6" style="stroke: none; stroke-width: 1.0;"/><path d="M155.02,32 C166.758,32 178.496,32 190.234,32 " fill="none" style="stroke: #A80036; stroke-width: 1.0;"/><polygon fill="#A80036" points="195.265,32,186.265,28,190.265,32,186.265,36,195.265,32" style="stroke: #A80036; stroke-width: 1.0;"/><path d="M436.906,32 C448.324,32 459.741,32 471.158,32 " fill="none" style="stroke: #A80036; stroke-width: 1.0;"/><polygon fill="#A80036" points="476.404,32,467.404,28,471.404,32,467.404,36,476.404,32" style="stroke: #A80036; stroke-width: 1.0;"/><path d="M528,49.08 C528,72.16 528,114.724 528,140.49 " fill="none" style="stroke: #A80036; stroke-width: 1.0;"/><polygon fill="#A80036" points="528,145.72,532,136.72,528,140.72,524,136.72,528,145.72" style="stroke: #A80036; stroke-width: 1.0;"/><text fill="#000000" font-family="sans-serif" font-size="13" lengthAdjust="spacingAndGlyphs" textLength="65" x="529" y="90">enter loop</text><path d="M510.858,180.057 C494.901,195.004 471.686,216.749 458.709,228.906 " fill="none" style="stroke: #A80036; stroke-width: 1.0;"/><polygon fill="#A80036" points="455.029,232.352,464.3315,229.1173,458.6777,228.9333,458.8617,223.2795,455.029,232.352" style="stroke: #A80036; stroke-width: 1.0;"/><text fill="#000000" font-family="sans-serif" font-size="13" lengthAdjust="spacingAndGlyphs" textLength="119" x="422.6555" y="214.2591">msg.flag == failed</text><path d="M544.33,239 C514.319,239 479.189,239 461.111,239 " fill="none" style="stroke: #A80036; stroke-width: 1.0;"/><polygon fill="#A80036" points="549.483,239,540.483,235,544.483,239,540.483,243,549.483,239" style="stroke: #A80036; stroke-width: 1.0;"/><text fill="#000000" font-family="sans-serif" font-size="13" lengthAdjust="spacingAndGlyphs" textLength="22" x="493.75" y="232">yes</text><path d="M612.39,256.119 C626.097,272.223 644,298.357 644,325 C644,325 644,325 644,834 C644,863.618 618.181,886.598 594.836,901.323 " fill="none" style="stroke: #A80036; stroke-width: 1.0;"/><polygon fill="#A80036" points="590.513,903.976,600.2758,902.6769,594.7743,901.3604,596.0908,895.8589,590.513,903.976" style="stroke: #A80036; stroke-width: 1.0;"/><path d="M444.993,247.247 C436.876,261.926 418.428,295.291 408.542,313.168 " fill="none" style="stroke: #A80036; stroke-width: 1.0;"/><polygon fill="#A80036" points="405.997,317.771,413.8516,311.8291,408.4157,313.395,406.8499,307.9591,405.997,317.771" style="stroke: #A80036; stroke-width: 1.0;"/><text fill="#000000" font-family="sans-serif" font-size="13" lengthAdjust="spacingAndGlyphs" textLength="16" x="429" y="290">no</text><text fill="#000000" font-family="sans-serif" font-size="13" lengthAdjust="spacingAndGlyphs" textLength="55" x="396.2144" y="304.155">msg.flag</text><path d="M399.003,335.43 C395.762,346.222 392.262,364.852 402,376 C419.409,395.929 438.329,370.352 461,384 C476.059,393.065 487.325,409.64 494.539,423.075 " fill="none" style="stroke: #A80036; stroke-width: 1.0;"/><polygon fill="#A80036" points="497.014,427.863,496.4361,418.0311,494.7187,423.421,489.3289,421.7036,497.014,427.863" style="stroke: #A80036; stroke-width: 1.0;"/><text fill="#000000" font-family="sans-serif" font-size="13" lengthAdjust="spacingAndGlyphs" textLength="117" x="403" y="372">== time_adjusted</text><path d="M529.241,185.411 C531.081,223.835 533.299,306.934 523,376 C520.306,394.064 514.312,414.136 509.771,427.759 " fill="none" style="stroke: #A80036; stroke-width: 1.0;"/><polygon fill="#A80036" points="528.974,180.073,525.429,189.2617,529.224,185.0667,533.4189,188.8618,528.974,180.073" style="stroke: #A80036; stroke-width: 1.0;"/><text fill="#000000" font-family="sans-serif" font-size="13" lengthAdjust="spacingAndGlyphs" textLength="62" x="531" y="290">start over</text><path d="M396.38,333.099 C391.341,338.985 384.255,348.396 381,358 C372.952,381.748 373.301,411.276 374.5,428.828 " fill="none" style="stroke: #A80036; stroke-width: 1.0;"/><polygon fill="#A80036" points="374.891,433.871,378.1847,424.5892,374.5052,428.8859,370.2085,425.2064,374.891,433.871" style="stroke: #A80036; stroke-width: 1.0;"/><text fill="#000000" font-family="sans-serif" font-size="13" lengthAdjust="spacingAndGlyphs" textLength="58" x="349.5109" y="422.838">prev_flag</text><path d="M376.246,456.966 C376.743,479.209 377.88,529.965 378.527,558.856 " fill="none" style="stroke: #A80036; stroke-width: 1.0;"/><polygon fill="#A80036" points="378.641,563.984,382.4368,554.896,378.5281,558.9853,374.4389,555.0766,378.641,563.984" style="stroke: #A80036; stroke-width: 1.0;"/><text fill="#000000" font-family="sans-serif" font-size="13" lengthAdjust="spacingAndGlyphs" textLength="189" x="378" y="508">in (none, converged, finished)</text><path d="M379.212,598.33 C379.362,609.841 379.563,625.363 379.725,637.825 " fill="none" style="stroke: #A80036; stroke-width: 1.0;"/><polygon fill="#A80036" points="379.792,642.958,383.6759,633.9073,379.7277,637.9584,375.6766,634.0102,379.792,642.958" style="stroke: #A80036; stroke-width: 1.0;"/><path d="M378.234,677.15 C376.865,689.661 375.024,706.498 373.929,716.503 " fill="none" style="stroke: #A80036; stroke-width: 1.0;"/><polygon fill="#A80036" points="373.356,721.749,378.3096,713.2365,373.8989,716.7786,370.3569,712.3679,373.356,721.749" style="stroke: #A80036; stroke-width: 1.0;"/><path d="M367.605,730.061 C357.92,735.691 337.179,748.366 322,762 C305.02,777.251 288.34,797.23 276.895,811.939 " fill="none" style="stroke: #A80036; stroke-width: 1.0;"/><polygon fill="#A80036" points="273.81,815.939,282.4748,811.2569,276.8643,811.9803,276.1409,806.3699,273.81,815.939" style="stroke: #A80036; stroke-width: 1.0;"/><path d="M164.971,833 C176.527,833 188.082,833 199.638,833 " fill="none" style="stroke: #A80036; stroke-width: 1.0;"/><polygon fill="#A80036" points="159.662,833,168.662,837,164.662,833,168.662,829,159.662,833" style="stroke: #A80036; stroke-width: 1.0;"/><path d="M324.466,833 C347.089,833 372.353,833 393.884,833 " fill="none" style="stroke: #A80036; stroke-width: 1.0;"/><polygon fill="#A80036" points="398.987,833,389.987,829,393.987,833,389.987,837,398.987,833" style="stroke: #A80036; stroke-width: 1.0;"/><text fill="#000000" font-family="sans-serif" font-size="13" lengthAdjust="spacingAndGlyphs" textLength="52" x="335" y="826">on done</text><path d="M491.266,833 C502.7,833 514.134,833 525.568,833 " fill="none" style="stroke: #A80036; stroke-width: 1.0;"/><polygon fill="#A80036" points="530.821,833,521.821,829,525.821,833,521.821,837,530.821,833" style="stroke: #A80036; stroke-width: 1.0;"/><path d="M367.449,448.778 C335.506,459.747 225,503.242 225,580 C225,580 225,580 225,727 C225,757.727 239.269,790.783 250.085,811.426 " fill="none" style="stroke: #A80036; stroke-width: 1.0;"/><polygon fill="#A80036" points="252.472,815.891,251.7534,806.0684,250.1134,811.4823,244.6995,809.8422,252.472,815.891" style="stroke: #A80036; stroke-width: 1.0;"/><text fill="#000000" font-family="sans-serif" font-size="13" lengthAdjust="spacingAndGlyphs" textLength="67" x="226" y="665">is iterating</text><path d="M570.506,837.266 C569.001,847.222 564.38,877.792 561.198,898.846 " fill="none" style="stroke: #A80036; stroke-width: 1.0;"/><polygon fill="#A80036" points="560.422,903.975,565.7218,895.6737,561.1691,899.0311,557.8116,894.4784,560.422,903.975" style="stroke: #A80036; stroke-width: 1.0;"/><path d="M539.556,938.057 C522.211,953.158 496.894,975.198 483.018,987.279 " fill="none" style="stroke: #A80036; stroke-width: 1.0;"/><polygon fill="#A80036" points="479.1,990.6892,488.5147,987.7972,482.8714,987.4064,483.2622,981.7631,479.1,990.6892" style="stroke: #A80036; stroke-width: 1.0;"/><text fill="#FFA500" font-family="sans-serif" font-size="13" lengthAdjust="spacingAndGlyphs" textLength="23" x="458.9598" y="969.7515">flag</text><text fill="#000000" font-family="sans-serif" font-size="13" lengthAdjust="spacingAndGlyphs" textLength="54" x="485.9598" y="969.7515">!= failed</text><path d="M485.442,997 C495.096,997 509.348,997 524.49,997 " fill="none" style="stroke: #A80036; stroke-width: 1.0;"/><polygon fill="#A80036" points="529.654,997,520.654,993,524.654,997,520.654,1001,529.654,997" style="stroke: #A80036; stroke-width: 1.0;"/><text fill="#000000" font-family="sans-serif" font-size="13" lengthAdjust="spacingAndGlyphs" textLength="22" x="495.75" y="990">yes</text><path d="M594.53,174.215 C629.834,183.829 666,202.372 666,238 C666,238 666,238 666,922 C666,946.776 645.078,966.834 626.444,979.785 " fill="none" style="stroke: #A80036; stroke-width: 1.0;"/><polygon fill="#A80036" points="589.332,172.86,597.0335,178.9989,594.1706,174.12,599.0496,171.2571,589.332,172.86" style="stroke: #A80036; stroke-width: 1.0;"/><path d="M275.187,997 C332.252,997 427.051,997 460.694,997 " fill="none" style="stroke: #A80036; stroke-width: 1.0;"/><polygon fill="#A80036" points="270.127,997,279.127,1001,275.127,997,279.127,993,270.127,997" style="stroke: #A80036; stroke-width: 1.0;"/><text fill="#000000" font-family="sans-serif" font-size="13" lengthAdjust="spacingAndGlyphs" textLength="16" x="357" y="990">no</text><path d="M230,1001.0004 C230,1010.9618 230,1043.386 230,1062.5137 " fill="none" style="stroke: #A80036; stroke-width: 1.0;"/><polygon fill="#A80036" points="230,1067.9834,234,1058.9834,230,1062.9834,226,1058.9834,230,1067.9834" style="stroke: #A80036; stroke-width: 1.0;"/></g></svg>