<?xml version="1.0" encoding="UTF-8" standalone="yes"?><svg xmlns="http://www.w3.org/2000/svg" xmlns:xlink="http://www.w3.org/1999/xlink" height="1181pt" style="width:989px;height:1181px;" version="1.1" viewBox="0 0 989 1181" width="989pt"><defs><filter height="300%" id="f1" width="300%" x="-1" y="-1"><feGaussianBlur result="blurOut" stdDeviation="2.0"/><feColorMatrix in="blurOut" result="blurOut2" type="matrix" values="0 0 0 0 0 0 0 0 0 0 0 0 0 0 0 0 0 0 .4 0"/><feOffset dx="4.0" dy="4.0" in="blurOut2" result="blurOut3"/><feBlend in="SourceGraphic" in2="blurOut3" mode="normal"/></filter></defs><g><rect fill="#FFFFFF" filter="url(#f1)" height="808.9297" style="stroke: #A80036; stroke-width: 1.0;" width="10" x="579" y="269.9609"/><rect fill="#FFFFFF" filter="url(#f1)" height="779.7969" style="stroke: #A80036; stroke-width: 1.0;" width="10" x="794" y="299.0938"/><rect fill="#FFFFFF" filter="url(#f1)" height="547.8672" style="stroke: #000000; stroke-width: 2.0;" width="490" x="484" y="459.8906"/><rect fill="#FFFFFF" filter="url(#f1)" height="155.6016" style="stroke: #000000; stroke-width: 2.0;" width="238" x="680" y="542.2891"/><rect fill="#FFFFFF" height="84.2031" style="stroke: none; stroke-width: 1.0;" width="238" x="680" y="613.6875"/><rect fill="#FFFFFF" filter="url(#f1)" height="288.8672" style="stroke: #000000; stroke-width: 2.0;" width="470" x="494" y="711.8906"/><rect fill="#FFFFFF" filter="url(#f1)" height="132.5313" style="stroke: #000000; stroke-width: 2.0;" width="219" x="735" y="778.1563"/><rect fill="#FFFFFF" filter="url(#f1)" height="59.2656" style="stroke: #000000; stroke-width: 2.0;" width="178" x="745" y="844.4219"/><rect fill="#FFFFFF" height="53.9375" style="stroke: none; stroke-width: 1.0;" width="470" x="494" y="946.8203"/><line style="stroke: #A80036; stroke-width: 1.0; stroke-dasharray: 5.0,5.0;" x1="70" x2="70" y1="83.2969" y2="1097.0234"/><line style="stroke: #A80036; stroke-width: 1.0; stroke-dasharray: 5.0,5.0;" x1="219" x2="219" y1="83.2969" y2="1097.0234"/><line style="stroke: #A80036; stroke-width: 1.0; stroke-dasharray: 5.0,5.0;" x1="364" x2="364" y1="83.2969" y2="1097.0234"/><line style="stroke: #A80036; stroke-width: 1.0; stroke-dasharray: 5.0,5.0;" x1="584" x2="584" y1="83.2969" y2="1097.0234"/><line style="stroke: #A80036; stroke-width: 1.0; stroke-dasharray: 5.0,5.0;" x1="799" x2="799" y1="83.2969" y2="1097.0234"/><text fill="#000000" font-family="sans-serif" font-size="14" lengthAdjust="spacingAndGlyphs" textLength="39" x="48" y="81">Script</text><ellipse cx="70.5" cy="10" fill="#FEFECE" filter="url(#f1)" rx="8" ry="8" style="stroke: #A80036; stroke-width: 2.0;"/><path d="M70.5,18 L70.5,45 M57.5,26 L83.5,26 M70.5,45 L57.5,60 M70.5,45 L83.5,60 " fill="#FEFECE" filter="url(#f1)" style="stroke: #A80036; stroke-width: 2.0;"/><text fill="#000000" font-family="sans-serif" font-size="14" lengthAdjust="spacingAndGlyphs" textLength="39" x="48" y="1109.7031">Script</text><ellipse cx="70.5" cy="1122" fill="#FEFECE" filter="url(#f1)" rx="8" ry="8" style="stroke: #A80036; stroke-width: 2.0;"/><path d="M70.5,1130 L70.5,1157 M57.5,1138 L83.5,1138 M70.5,1157 L57.5,1172 M70.5,1157 L83.5,1172 " fill="#FEFECE" filter="url(#f1)" style="stroke: #A80036; stroke-width: 2.0;"/><rect fill="#FEFECE" filter="url(#f1)" height="36" style="stroke: #A80036; stroke-width: 1.5;" width="99" x="168" y="42.2969"/><ellipse cx="186" cy="60.2969" fill="#FFC0CB" rx="11" ry="11" style="stroke: #A80036; stroke-width: 1.0;"/><path d="M185.7969,55.9688 L185.7969,59.5938 L186.7969,59.5938 Q188,59.5938 188.4844,59.1875 Q188.9688,58.7813 188.9688,57.7813 Q188.9688,56.7813 188.4844,56.375 Q188,55.9688 186.7969,55.9688 L185.7969,55.9688 Z M183.3438,53.9063 L186.7031,53.9063 Q189.2656,53.9063 190.3906,54.8203 Q191.5156,55.7344 191.5156,57.7813 Q191.5156,59.8281 190.3906,60.7422 Q189.2656,61.6563 186.7031,61.6563 L185.7969,61.6563 L185.7969,66.2969 L183.3438,66.2969 L183.3438,53.9063 Z "/><text fill="#000000" font-family="sans-serif" font-size="14" lengthAdjust="spacingAndGlyphs" textLength="57" x="203" y="63.2969">Problem</text><rect fill="#FEFECE" filter="url(#f1)" height="36" style="stroke: #A80036; stroke-width: 1.5;" width="99" x="168" y="1095.7031"/><ellipse cx="186" cy="1113.7031" fill="#FFC0CB" rx="11" ry="11" style="stroke: #A80036; stroke-width: 1.0;"/><path d="M185.7969,1109.375 L185.7969,1113 L186.7969,1113 Q188,1113 188.4844,1112.5938 Q188.9688,1112.1875 188.9688,1111.1875 Q188.9688,1110.1875 188.4844,1109.7813 Q188,1109.375 186.7969,1109.375 L185.7969,1109.375 Z M183.3438,1107.3125 L186.7031,1107.3125 Q189.2656,1107.3125 190.3906,1108.2266 Q191.5156,1109.1406 191.5156,1111.1875 Q191.5156,1113.2344 190.3906,1114.1484 Q189.2656,1115.0625 186.7031,1115.0625 L185.7969,1115.0625 L185.7969,1119.7031 L183.3438,1119.7031 L183.3438,1107.3125 Z "/><text fill="#000000" font-family="sans-serif" font-size="14" lengthAdjust="spacingAndGlyphs" textLength="57" x="203" y="1116.7031">Problem</text><rect fill="#FEFECE" filter="url(#f1)" height="46.5938" style="stroke: #A80036; stroke-width: 1.5;" width="162" x="281" y="31.7031"/><text fill="#000000" font-family="sans-serif" font-size="14" lengthAdjust="spacingAndGlyphs" textLength="148" x="288" y="52.7031">Solver-Communicator</text><text fill="#000000" font-family="sans-serif" font-size="14" lengthAdjust="spacingAndGlyphs" textLength="114" x="305" y="69">Factory Function</text><rect fill="#FEFECE" filter="url(#f1)" height="46.5938" style="stroke: #A80036; stroke-width: 1.5;" width="162" x="281" y="1095.7031"/><text fill="#000000" font-family="sans-serif" font-size="14" lengthAdjust="spacingAndGlyphs" textLength="148" x="288" y="1116.7031">Solver-Communicator</text><text fill="#000000" font-family="sans-serif" font-size="14" lengthAdjust="spacingAndGlyphs" textLength="114" x="305" y="1133">Factory Function</text><rect fill="#FEFECE" filter="url(#f1)" height="36" style="stroke: #A80036; stroke-width: 1.5;" width="156" x="504" y="42.2969"/><ellipse cx="522" cy="60.2969" fill="#ADD8E6" rx="11" ry="11" style="stroke: #A80036; stroke-width: 1.0;"/><path d="M524.9688,65.9375 Q524.3906,66.2344 523.75,66.3828 Q523.1094,66.5313 522.4063,66.5313 Q519.9063,66.5313 518.5859,64.8828 Q517.2656,63.2344 517.2656,60.1094 Q517.2656,56.9844 518.5859,55.3281 Q519.9063,53.6719 522.4063,53.6719 Q523.1094,53.6719 523.7578,53.8281 Q524.4063,53.9844 524.9688,54.2813 L524.9688,57 Q524.3438,56.4219 523.75,56.1484 Q523.1563,55.875 522.5313,55.875 Q521.1875,55.875 520.5,56.9453 Q519.8125,58.0156 519.8125,60.1094 Q519.8125,62.2031 520.5,63.2734 Q521.1875,64.3438 522.5313,64.3438 Q523.1563,64.3438 523.75,64.0703 Q524.3438,63.7969 524.9688,63.2188 L524.9688,65.9375 Z "/><text fill="#000000" font-family="sans-serif" font-size="14" lengthAdjust="spacingAndGlyphs" textLength="114" x="539" y="63.2969">Communicator n</text><rect fill="#FEFECE" filter="url(#f1)" height="36" style="stroke: #A80036; stroke-width: 1.5;" width="156" x="504" y="1095.7031"/><ellipse cx="522" cy="1113.7031" fill="#ADD8E6" rx="11" ry="11" style="stroke: #A80036; stroke-width: 1.0;"/><path d="M524.9688,1119.3438 Q524.3906,1119.6406 523.75,1119.7891 Q523.1094,1119.9375 522.4063,1119.9375 Q519.9063,1119.9375 518.5859,1118.2891 Q517.2656,1116.6406 517.2656,1113.5156 Q517.2656,1110.3906 518.5859,1108.7344 Q519.9063,1107.0781 522.4063,1107.0781 Q523.1094,1107.0781 523.7578,1107.2344 Q524.4063,1107.3906 524.9688,1107.6875 L524.9688,1110.4063 Q524.3438,1109.8281 523.75,1109.5547 Q523.1563,1109.2813 522.5313,1109.2813 Q521.1875,1109.2813 520.5,1110.3516 Q519.8125,1111.4219 519.8125,1113.5156 Q519.8125,1115.6094 520.5,1116.6797 Q521.1875,1117.75 522.5313,1117.75 Q523.1563,1117.75 523.75,1117.4766 Q524.3438,1117.2031 524.9688,1116.625 L524.9688,1119.3438 Z "/><text fill="#000000" font-family="sans-serif" font-size="14" lengthAdjust="spacingAndGlyphs" textLength="114" x="539" y="1116.7031">Communicator n</text><rect fill="#FEFECE" filter="url(#f1)" height="36" style="stroke: #A80036; stroke-width: 1.5;" width="84" x="755" y="42.2969"/><ellipse cx="773" cy="60.2969" fill="#90EE90" rx="11" ry="11" style="stroke: #A80036; stroke-width: 1.0;"/><path d="M772.4844,60.8594 Q770.625,60.1563 769.9766,59.3828 Q769.3281,58.6094 769.3281,57.2969 Q769.3281,55.6094 770.4063,54.6406 Q771.4844,53.6719 773.3594,53.6719 Q774.2188,53.6719 775.0703,53.8672 Q775.9219,54.0625 776.7656,54.4531 L776.7656,56.8438 Q775.9844,56.2813 775.1641,55.9922 Q774.3438,55.7031 773.5469,55.7031 Q772.6719,55.7031 772.1953,56.0625 Q771.7188,56.4219 771.7188,57.0781 Q771.7188,57.5938 772.0625,57.9297 Q772.4063,58.2656 773.5,58.6719 L774.5625,59.0781 Q776.0469,59.625 776.7578,60.5313 Q777.4688,61.4375 777.4688,62.8125 Q777.4688,64.6875 776.3594,65.6094 Q775.25,66.5313 773,66.5313 Q772.0781,66.5313 771.1563,66.3125 Q770.2344,66.0938 769.375,65.6719 L769.375,63.1406 Q770.3438,63.8281 771.2656,64.1719 Q772.1875,64.5156 773.0781,64.5156 Q773.9844,64.5156 774.4844,64.1016 Q774.9844,63.6875 774.9844,62.9531 Q774.9844,62.3906 774.6484,61.9766 Q774.3125,61.5625 773.6875,61.3125 L772.4844,60.8594 Z "/><text fill="#000000" font-family="sans-serif" font-size="14" lengthAdjust="spacingAndGlyphs" textLength="42" x="790" y="63.2969">Solver</text><rect fill="#FEFECE" filter="url(#f1)" height="36" style="stroke: #A80036; stroke-width: 1.5;" width="84" x="755" y="1095.7031"/><ellipse cx="773" cy="1113.7031" fill="#90EE90" rx="11" ry="11" style="stroke: #A80036; stroke-width: 1.0;"/><path d="M772.4844,1114.2656 Q770.625,1113.5625 769.9766,1112.7891 Q769.3281,1112.0156 769.3281,1110.7031 Q769.3281,1109.0156 770.4063,1108.0469 Q771.4844,1107.0781 773.3594,1107.0781 Q774.2188,1107.0781 775.0703,1107.2734 Q775.9219,1107.4688 776.7656,1107.8594 L776.7656,1110.25 Q775.9844,1109.6875 775.1641,1109.3984 Q774.3438,1109.1094 773.5469,1109.1094 Q772.6719,1109.1094 772.1953,1109.4688 Q771.7188,1109.8281 771.7188,1110.4844 Q771.7188,1111 772.0625,1111.3359 Q772.4063,1111.6719 773.5,1112.0781 L774.5625,1112.4844 Q776.0469,1113.0313 776.7578,1113.9375 Q777.4688,1114.8438 777.4688,1116.2188 Q777.4688,1118.0938 776.3594,1119.0156 Q775.25,1119.9375 773,1119.9375 Q772.0781,1119.9375 771.1563,1119.7188 Q770.2344,1119.5 769.375,1119.0781 L769.375,1116.5469 Q770.3438,1117.2344 771.2656,1117.5781 Q772.1875,1117.9219 773.0781,1117.9219 Q773.9844,1117.9219 774.4844,1117.5078 Q774.9844,1117.0938 774.9844,1116.3594 Q774.9844,1115.7969 774.6484,1115.3828 Q774.3125,1114.9688 773.6875,1114.7188 L772.4844,1114.2656 Z "/><text fill="#000000" font-family="sans-serif" font-size="14" lengthAdjust="spacingAndGlyphs" textLength="42" x="790" y="1116.7031">Solver</text><rect fill="#FFFFFF" filter="url(#f1)" height="808.9297" style="stroke: #A80036; stroke-width: 1.0;" width="10" x="579" y="269.9609"/><rect fill="#FFFFFF" filter="url(#f1)" height="779.7969" style="stroke: #A80036; stroke-width: 1.0;" width="10" x="794" y="299.0938"/><polygon fill="#FBFB77" filter="url(#f1)" points="5,98.2969,5,138.2969,132,138.2969,132,108.2969,122,98.2969,5,98.2969" style="stroke: #A80036; stroke-width: 1.0;"/><line style="stroke: #A80036; stroke-width: 1.0;" x1="122" x2="122" y1="98.2969" y2="108.2969"/><line style="stroke: #A80036; stroke-width: 1.0;" x1="132" x2="122" y1="108.2969" y2="108.2969"/><text fill="#000000" font-family="sans-serif" font-size="13" lengthAdjust="spacingAndGlyphs" textLength="96" x="11" y="116.2969">started parallel</text><text fill="#000000" font-family="sans-serif" font-size="13" lengthAdjust="spacingAndGlyphs" textLength="106" x="11" y="131.4297">with #T, #M, #N</text><rect fill="#EEEEEE" filter="url(#f1)" height="3" style="stroke: #EEEEEE; stroke-width: 1.0;" width="984" x="0" y="168.1289"/><line style="stroke: #000000; stroke-width: 1.0;" x1="0" x2="984" y1="168.1289" y2="168.1289"/><line style="stroke: #000000; stroke-width: 1.0;" x1="0" x2="984" y1="171.1289" y2="171.1289"/><rect fill="#EEEEEE" filter="url(#f1)" height="23.1328" style="stroke: #000000; stroke-width: 2.0;" width="108" x="438" y="157.5625"/><text fill="#000000" font-family="sans-serif" font-size="13" font-weight="bold" lengthAdjust="spacingAndGlyphs" textLength="89" x="444" y="174.5625">Initialization</text><polygon fill="#A80036" points="207.5,207.6953,217.5,211.6953,207.5,215.6953,211.5,211.6953" style="stroke: #A80036; stroke-width: 1.0;"/><line style="stroke: #A80036; stroke-width: 1.0;" x1="70.5" x2="213.5" y1="211.6953" y2="211.6953"/><text fill="#000000" font-family="sans-serif" font-size="13" lengthAdjust="spacingAndGlyphs" textLength="21" x="77.5" y="207.6953">call</text><text fill="#FF0000" font-family="sans-serif" font-size="13" font-weight="bold" lengthAdjust="spacingAndGlyphs" textLength="10" x="102.5" y="207.6953">P</text><text fill="#000000" font-family="sans-serif" font-size="13" font-weight="bold" lengthAdjust="spacingAndGlyphs" textLength="28" x="112.5" y="207.6953">.init</text><text fill="#000000" font-family="sans-serif" font-size="13" lengthAdjust="spacingAndGlyphs" textLength="62" x="140.5" y="207.6953">(iv, t0, t1)</text><polygon fill="#A80036" points="352,236.8281,362,240.8281,352,244.8281,356,240.8281" style="stroke: #A80036; stroke-width: 1.0;"/><line style="stroke: #A80036; stroke-width: 1.0;" x1="70.5" x2="358" y1="240.8281" y2="240.8281"/><text fill="#000000" font-family="sans-serif" font-size="13" lengthAdjust="spacingAndGlyphs" textLength="21" x="77.5" y="236.8281">call</text><text fill="#0000FF" font-family="sans-serif" font-size="13" font-weight="bold" lengthAdjust="spacingAndGlyphs" textLength="10" x="102.5" y="236.8281">C</text><text fill="#000000" font-family="sans-serif" font-size="13" font-weight="bold" lengthAdjust="spacingAndGlyphs" textLength="28" x="112.5" y="236.8281">.init</text><text fill="#000000" font-family="sans-serif" font-size="13" lengthAdjust="spacingAndGlyphs" textLength="5" x="140.5" y="236.8281">(</text><text fill="#FF0000" font-family="sans-serif" font-size="13" font-weight="bold" lengthAdjust="spacingAndGlyphs" textLength="10" x="145.5" y="236.8281">P</text><text fill="#000000" font-family="sans-serif" font-size="13" lengthAdjust="spacingAndGlyphs" textLength="57" x="155.5" y="236.8281">, N, T, M)</text><polygon fill="#A80036" points="567,265.9609,577,269.9609,567,273.9609,571,269.9609" style="stroke: #A80036; stroke-width: 1.0;"/><line style="stroke: #A80036; stroke-width: 1.0;" x1="364" x2="573" y1="269.9609" y2="269.9609"/><text fill="#000000" font-family="sans-serif" font-size="13" lengthAdjust="spacingAndGlyphs" textLength="168" x="371" y="265.9609">creates N Communicators</text><text fill="#0000FF" font-family="sans-serif" font-size="13" font-weight="bold" lengthAdjust="spacingAndGlyphs" textLength="19" x="543" y="265.9609">Cn</text><polygon fill="#A80036" points="782,295.0938,792,299.0938,782,303.0938,786,299.0938" style="stroke: #A80036; stroke-width: 1.0;"/><line style="stroke: #A80036; stroke-width: 1.0;" x1="364" x2="788" y1="299.0938" y2="299.0938"/><text fill="#000000" font-family="sans-serif" font-size="13" lengthAdjust="spacingAndGlyphs" textLength="113" x="371" y="295.0938">creates N Solvers</text><text fill="#008000" font-family="sans-serif" font-size="13" font-weight="bold" lengthAdjust="spacingAndGlyphs" textLength="18" x="488" y="295.0938">Sn</text><polygon fill="#A80036" points="600,339.2266,590,343.2266,600,347.2266,596,343.2266" style="stroke: #A80036; stroke-width: 1.0;"/><polygon fill="#A80036" points="782,339.2266,792,343.2266,782,347.2266,786,343.2266" style="stroke: #A80036; stroke-width: 1.0;"/><line style="stroke: #A80036; stroke-width: 1.0; stroke-dasharray: 2.0,2.0;" x1="594" x2="788" y1="343.2266" y2="343.2266"/><text fill="#000000" font-family="sans-serif" font-size="13" lengthAdjust="spacingAndGlyphs" textLength="34" x="606" y="324.2266">three</text><text fill="#008000" font-family="sans-serif" font-size="13" font-weight="bold" lengthAdjust="spacingAndGlyphs" textLength="17" x="644" y="324.2266">Sx</text><text fill="#000000" font-family="sans-serif" font-size="13" lengthAdjust="spacingAndGlyphs" textLength="116" x="665" y="324.2266">(x={n-1, n, n+1})</text><text fill="#000000" font-family="sans-serif" font-size="13" lengthAdjust="spacingAndGlyphs" textLength="59" x="650" y="339.3594">linked via</text><text fill="#0000FF" font-family="sans-serif" font-size="13" font-weight="bold" lengthAdjust="spacingAndGlyphs" textLength="19" x="713" y="339.3594">Cn</text><polygon fill="#A80036" points="81.5,368.4922,71.5,372.4922,81.5,376.4922,77.5,372.4922" style="stroke: #A80036; stroke-width: 1.0;"/><line style="stroke: #A80036; stroke-width: 1.0;" x1="75.5" x2="363" y1="372.4922" y2="372.4922"/><text fill="#000000" font-family="sans-serif" font-size="13" lengthAdjust="spacingAndGlyphs" textLength="83" x="87.5" y="368.4922">return Solver</text><text fill="#008000" font-family="sans-serif" font-size="13" font-weight="bold" lengthAdjust="spacingAndGlyphs" textLength="18" x="174.5" y="368.4922">Sn</text><text fill="#000000" font-family="sans-serif" font-size="13" lengthAdjust="spacingAndGlyphs" textLength="78" x="196.5" y="368.4922">of process n</text><rect fill="#EEEEEE" filter="url(#f1)" height="3" style="stroke: #EEEEEE; stroke-width: 1.0;" width="984" x="0" y="401.1914"/><line style="stroke: #000000; stroke-width: 1.0;" x1="0" x2="984" y1="401.1914" y2="401.1914"/><line style="stroke: #000000; stroke-width: 1.0;" x1="0" x2="984" y1="404.1914" y2="404.1914"/><rect fill="#EEEEEE" filter="url(#f1)" height="23.1328" style="stroke: #000000; stroke-width: 2.0;" width="114" x="435" y="390.625"/><text fill="#000000" font-family="sans-serif" font-size="13" font-weight="bold" lengthAdjust="spacingAndGlyphs" textLength="95" x="441" y="407.625">Computation</text><polygon fill="#A80036" points="782,440.7578,792,444.7578,782,448.7578,786,444.7578" style="stroke: #A80036; stroke-width: 1.0;"/><line style="stroke: #A80036; stroke-width: 1.0;" x1="70.5" x2="788" y1="444.7578" y2="444.7578"/><text fill="#000000" font-family="sans-serif" font-size="13" lengthAdjust="spacingAndGlyphs" textLength="21" x="77.5" y="440.7578">call</text><text fill="#008000" font-family="sans-serif" font-size="13" font-weight="bold" lengthAdjust="spacingAndGlyphs" textLength="18" x="102.5" y="440.7578">Sn</text><text fill="#000000" font-family="sans-serif" font-size="13" font-weight="bold" lengthAdjust="spacingAndGlyphs" textLength="29" x="120.5" y="440.7578">.run</text><text fill="#000000" font-family="sans-serif" font-size="13" lengthAdjust="spacingAndGlyphs" textLength="40" x="149.5" y="440.7578">(Core)</text><rect fill="none" height="547.8672" style="stroke: #000000; stroke-width: 2.0;" width="490" x="484" y="459.8906"/><polygon fill="#EEEEEE" points="484,459.8906,561,459.8906,561,466.8906,551,476.8906,484,476.8906,484,459.8906" style="stroke: #000000; stroke-width: 2.0;"/><text fill="#000000" font-family="sans-serif" font-size="13" font-weight="bold" lengthAdjust="spacingAndGlyphs" textLength="32" x="499" y="473.8906">loop</text><text fill="#000000" font-family="sans-serif" font-size="11" font-weight="bold" lengthAdjust="spacingAndGlyphs" textLength="73" x="576" y="472.8906">[over work]</text><polygon fill="#A80036" points="600,494.0234,590,498.0234,600,502.0234,596,498.0234" style="stroke: #A80036; stroke-width: 1.0;"/><line style="stroke: #A80036; stroke-width: 1.0;" x1="594" x2="793" y1="498.0234" y2="498.0234"/><text fill="#000000" font-family="sans-serif" font-size="13" lengthAdjust="spacingAndGlyphs" textLength="21" x="606" y="494.0234">call</text><text fill="#0000FF" font-family="sans-serif" font-size="13" font-weight="bold" lengthAdjust="spacingAndGlyphs" textLength="19" x="631" y="494.0234">Cn</text><text fill="#000000" font-family="sans-serif" font-size="13" font-weight="bold" lengthAdjust="spacingAndGlyphs" textLength="36" x="650" y="494.0234">.recv</text><text fill="#000000" font-family="sans-serif" font-size="13" lengthAdjust="spacingAndGlyphs" textLength="10" x="686" y="494.0234">()</text><polygon fill="#A80036" points="782,523.1563,792,527.1563,782,531.1563,786,527.1563" style="stroke: #A80036; stroke-width: 1.0;"/><line style="stroke: #A80036; stroke-width: 1.0; stroke-dasharray: 2.0,2.0;" x1="589" x2="788" y1="527.1563" y2="527.1563"/><text fill="#000000" font-family="sans-serif" font-size="13" lengthAdjust="spacingAndGlyphs" textLength="46" x="596" y="523.1563">receive</text><text fill="#FFA500" font-family="sans-serif" font-size="13" font-weight="bold" lengthAdjust="spacingAndGlyphs" textLength="13" x="646" y="523.1563">M</text><text fill="#000000" font-family="sans-serif" font-size="13" lengthAdjust="spacingAndGlyphs" textLength="46" x="659" y="523.1563">essage</text><rect fill="none" height="155.6016" style="stroke: #000000; stroke-width: 2.0;" width="238" x="680" y="542.2891"/><polygon fill="#EEEEEE" points="680,542.2891,861,542.2891,861,564.2891,851,574.2891,680,574.2891,680,542.2891" style="stroke: #000000; stroke-width: 2.0;"/><text fill="#000000" font-family="sans-serif" font-size="13" font-weight="bold" lengthAdjust="spacingAndGlyphs" textLength="10" x="695" y="556.2891">if</text><text fill="#FFA500" font-family="sans-serif" font-size="13" font-weight="bold" lengthAdjust="spacingAndGlyphs" textLength="13" x="710" y="556.2891">M</text><text fill="#000000" font-family="sans-serif" font-size="13" font-weight="bold" lengthAdjust="spacingAndGlyphs" textLength="103" x="723" y="556.2891">.flag != failed</text><text fill="#000000" font-family="sans-serif" font-size="13" font-weight="bold" lengthAdjust="spacingAndGlyphs" textLength="22" x="710" y="571.4219">&amp;&amp;</text><text fill="#FFA500" font-family="sans-serif" font-size="13" font-weight="bold" lengthAdjust="spacingAndGlyphs" textLength="13" x="737" y="571.4219">M</text><text fill="#000000" font-family="sans-serif" font-size="13" font-weight="bold" lengthAdjust="spacingAndGlyphs" textLength="38" x="750" y="571.4219">.t ==</text><text fill="#008000" font-family="sans-serif" font-size="13" font-weight="bold" lengthAdjust="spacingAndGlyphs" textLength="18" x="793" y="571.4219">Sn</text><text fill="#000000" font-family="sans-serif" font-size="13" font-weight="bold" lengthAdjust="spacingAndGlyphs" textLength="20" x="811" y="571.4219">.t0</text><polygon fill="#FBFB77" filter="url(#f1)" points="690,579.5547,690,604.5547,904,604.5547,904,589.5547,894,579.5547,690,579.5547" style="stroke: #A80036; stroke-width: 1.0;"/><line style="stroke: #A80036; stroke-width: 1.0;" x1="894" x2="894" y1="579.5547" y2="589.5547"/><line style="stroke: #A80036; stroke-width: 1.0;" x1="904" x2="894" y1="589.5547" y2="589.5547"/><text fill="#000000" font-family="sans-serif" font-size="13" lengthAdjust="spacingAndGlyphs" textLength="193" x="696" y="597.5547">continue with previous interval</text><line style="stroke: #000000; stroke-width: 1.0; stroke-dasharray: 2.0,2.0;" x1="680" x2="918" y1="614.6875" y2="614.6875"/><text fill="#000000" font-family="sans-serif" font-size="11" font-weight="bold" lengthAdjust="spacingAndGlyphs" textLength="121" x="685" y="625.6875">[else new interval]</text><polygon fill="#FBFB77" filter="url(#f1)" points="710,633.4922,710,688.4922,883,688.4922,883,643.4922,873,633.4922,710,633.4922" style="stroke: #A80036; stroke-width: 1.0;"/><line style="stroke: #A80036; stroke-width: 1.0;" x1="873" x2="873" y1="633.4922" y2="643.4922"/><line style="stroke: #A80036; stroke-width: 1.0;" x1="883" x2="873" y1="643.4922" y2="643.4922"/><text fill="#000000" font-family="sans-serif" font-size="13" lengthAdjust="spacingAndGlyphs" textLength="100" x="748" y="651.4922">set new interval</text><text fill="#008000" font-family="sans-serif" font-size="13" font-weight="bold" lengthAdjust="spacingAndGlyphs" textLength="18" x="716" y="666.625">Sn</text><text fill="#000000" font-family="sans-serif" font-size="13" lengthAdjust="spacingAndGlyphs" textLength="31" x="734" y="666.625">.I = [</text><text fill="#FFA500" font-family="sans-serif" font-size="13" font-weight="bold" lengthAdjust="spacingAndGlyphs" textLength="13" x="765" y="666.625">M</text><text fill="#000000" font-family="sans-serif" font-size="13" lengthAdjust="spacingAndGlyphs" textLength="13" x="778" y="666.625">.t,</text><text fill="#FFA500" font-family="sans-serif" font-size="13" font-weight="bold" lengthAdjust="spacingAndGlyphs" textLength="13" x="795" y="666.625">M</text><text fill="#000000" font-family="sans-serif" font-size="13" lengthAdjust="spacingAndGlyphs" textLength="20" x="808" y="666.625">.t+</text><text fill="#008000" font-family="sans-serif" font-size="13" font-weight="bold" lengthAdjust="spacingAndGlyphs" textLength="18" x="828" y="666.625">Sn</text><text fill="#000000" font-family="sans-serif" font-size="13" lengthAdjust="spacingAndGlyphs" textLength="22" x="846" y="666.625">.dt]</text><text fill="#008000" font-family="sans-serif" font-size="13" font-weight="bold" lengthAdjust="spacingAndGlyphs" textLength="18" x="716" y="681.7578">Sn</text><text fill="#000000" font-family="sans-serif" font-size="13" lengthAdjust="spacingAndGlyphs" textLength="32" x="734" y="681.7578">.t1 =</text><text fill="#008000" font-family="sans-serif" font-size="13" font-weight="bold" lengthAdjust="spacingAndGlyphs" textLength="18" x="770" y="681.7578">Sn</text><text fill="#000000" font-family="sans-serif" font-size="13" lengthAdjust="spacingAndGlyphs" textLength="25" x="788" y="681.7578">.I[1]</text><rect fill="none" height="288.8672" style="stroke: #000000; stroke-width: 2.0;" width="470" x="494" y="711.8906"/><polygon fill="#EEEEEE" points="494,711.8906,654,711.8906,654,718.8906,644,728.8906,494,728.8906,494,711.8906" style="stroke: #000000; stroke-width: 2.0;"/><text fill="#000000" font-family="sans-serif" font-size="13" font-weight="bold" lengthAdjust="spacingAndGlyphs" textLength="10" x="509" y="725.8906">if</text><text fill="#008000" font-family="sans-serif" font-size="13" font-weight="bold" lengthAdjust="spacingAndGlyphs" textLength="18" x="524" y="725.8906">Sn</text><text fill="#000000" font-family="sans-serif" font-size="13" font-weight="bold" lengthAdjust="spacingAndGlyphs" textLength="47" x="542" y="725.8906">.t1 &lt;=</text><text fill="#FF0000" font-family="sans-serif" font-size="13" font-weight="bold" lengthAdjust="spacingAndGlyphs" textLength="10" x="594" y="725.8906">P</text><text fill="#000000" font-family="sans-serif" font-size="13" font-weight="bold" lengthAdjust="spacingAndGlyphs" textLength="20" x="604" y="725.8906">.t1</text><line style="stroke: #A80036; stroke-width: 1.0;" x1="804" x2="846" y1="750.1563" y2="750.1563"/><line style="stroke: #A80036; stroke-width: 1.0;" x1="846" x2="846" y1="750.1563" y2="763.1563"/><line style="stroke: #A80036; stroke-width: 1.0;" x1="805" x2="846" y1="763.1563" y2="763.1563"/><polygon fill="#A80036" points="815,759.1563,805,763.1563,815,767.1563,811,763.1563" style="stroke: #A80036; stroke-width: 1.0;"/><text fill="#000000" font-family="sans-serif" font-size="13" lengthAdjust="spacingAndGlyphs" textLength="21" x="811" y="746.0234">call</text><text fill="#008000" font-family="sans-serif" font-size="13" font-weight="bold" lengthAdjust="spacingAndGlyphs" textLength="18" x="836" y="746.0234">Sn</text><text fill="#000000" font-family="sans-serif" font-size="13" font-weight="bold" lengthAdjust="spacingAndGlyphs" textLength="54" x="854" y="746.0234">.iterate</text><text fill="#000000" font-family="sans-serif" font-size="13" lengthAdjust="spacingAndGlyphs" textLength="10" x="908" y="746.0234">()</text><rect fill="none" height="132.5313" style="stroke: #000000; stroke-width: 2.0;" width="219" x="735" y="778.1563"/><polygon fill="#EEEEEE" points="735,778.1563,812,778.1563,812,785.1563,802,795.1563,735,795.1563,735,778.1563" style="stroke: #000000; stroke-width: 2.0;"/><text fill="#000000" font-family="sans-serif" font-size="13" font-weight="bold" lengthAdjust="spacingAndGlyphs" textLength="32" x="750" y="792.1563">loop</text><text fill="#000000" font-family="sans-serif" font-size="11" font-weight="bold" lengthAdjust="spacingAndGlyphs" textLength="109" x="827" y="791.1563">[over time steps]</text><line style="stroke: #A80036; stroke-width: 1.0;" x1="804" x2="846" y1="816.4219" y2="816.4219"/><line style="stroke: #A80036; stroke-width: 1.0;" x1="846" x2="846" y1="816.4219" y2="829.4219"/><line style="stroke: #A80036; stroke-width: 1.0;" x1="805" x2="846" y1="829.4219" y2="829.4219"/><polygon fill="#A80036" points="815,825.4219,805,829.4219,815,833.4219,811,829.4219" style="stroke: #A80036; stroke-width: 1.0;"/><text fill="#000000" font-family="sans-serif" font-size="13" lengthAdjust="spacingAndGlyphs" textLength="21" x="811" y="812.2891">call</text><text fill="#008000" font-family="sans-serif" font-size="13" font-weight="bold" lengthAdjust="spacingAndGlyphs" textLength="18" x="836" y="812.2891">Sn</text><text fill="#000000" font-family="sans-serif" font-size="13" font-weight="bold" lengthAdjust="spacingAndGlyphs" textLength="78" x="854" y="812.2891">.time_step</text><text fill="#000000" font-family="sans-serif" font-size="13" lengthAdjust="spacingAndGlyphs" textLength="10" x="932" y="812.2891">()</text><rect fill="none" height="59.2656" style="stroke: #000000; stroke-width: 2.0;" width="178" x="745" y="844.4219"/><polygon fill="#EEEEEE" points="745,844.4219,822,844.4219,822,851.4219,812,861.4219,745,861.4219,745,844.4219" style="stroke: #000000; stroke-width: 2.0;"/><text fill="#000000" font-family="sans-serif" font-size="13" font-weight="bold" lengthAdjust="spacingAndGlyphs" textLength="32" x="760" y="858.4219">loop</text><text fill="#000000" font-family="sans-serif" font-size="11" font-weight="bold" lengthAdjust="spacingAndGlyphs" textLength="81" x="837" y="857.4219">[over nodes]</text><line style="stroke: #A80036; stroke-width: 1.0;" x1="804" x2="846" y1="882.6875" y2="882.6875"/><line style="stroke: #A80036; stroke-width: 1.0;" x1="846" x2="846" y1="882.6875" y2="895.6875"/><line style="stroke: #A80036; stroke-width: 1.0;" x1="805" x2="846" y1="895.6875" y2="895.6875"/><polygon fill="#A80036" points="815,891.6875,805,895.6875,815,899.6875,811,895.6875" style="stroke: #A80036; stroke-width: 1.0;"/><text fill="#000000" font-family="sans-serif" font-size="13" lengthAdjust="spacingAndGlyphs" textLength="21" x="811" y="878.5547">call</text><text fill="#008000" font-family="sans-serif" font-size="13" font-weight="bold" lengthAdjust="spacingAndGlyphs" textLength="18" x="836" y="878.5547">Sn</text><text fill="#000000" font-family="sans-serif" font-size="13" font-weight="bold" lengthAdjust="spacingAndGlyphs" textLength="38" x="854" y="878.5547">.step</text><text fill="#000000" font-family="sans-serif" font-size="13" lengthAdjust="spacingAndGlyphs" textLength="10" x="892" y="878.5547">()</text><polygon fill="#A80036" points="600,934.6875,590,938.6875,600,942.6875,596,938.6875" style="stroke: #A80036; stroke-width: 1.0;"/><line style="stroke: #A80036; stroke-width: 1.0;" x1="594" x2="793" y1="938.6875" y2="938.6875"/><text fill="#000000" font-family="sans-serif" font-size="13" lengthAdjust="spacingAndGlyphs" textLength="21" x="606" y="934.6875">call</text><text fill="#0000FF" font-family="sans-serif" font-size="13" font-weight="bold" lengthAdjust="spacingAndGlyphs" textLength="19" x="631" y="934.6875">Cn</text><text fill="#000000" font-family="sans-serif" font-size="13" font-weight="bold" lengthAdjust="spacingAndGlyphs" textLength="41" x="650" y="934.6875">.send</text><text fill="#000000" font-family="sans-serif" font-size="13" lengthAdjust="spacingAndGlyphs" textLength="96" x="691" y="934.6875">(value, t1, flag)</text><line style="stroke: #000000; stroke-width: 1.0; stroke-dasharray: 2.0,2.0;" x1="494" x2="964" y1="947.8203" y2="947.8203"/><text fill="#000000" font-family="sans-serif" font-size="11" font-weight="bold" lengthAdjust="spacingAndGlyphs" textLength="128" x="499" y="958.8203">[else no more work]</text><polygon fill="#FBFB77" filter="url(#f1)" points="693,966.625,693,991.625,901,991.625,901,976.625,891,966.625,693,966.625" style="stroke: #A80036; stroke-width: 1.0;"/><line style="stroke: #A80036; stroke-width: 1.0;" x1="891" x2="891" y1="966.625" y2="976.625"/><line style="stroke: #A80036; stroke-width: 1.0;" x1="901" x2="891" y1="976.625" y2="976.625"/><text fill="#000000" font-family="sans-serif" font-size="13" lengthAdjust="spacingAndGlyphs" textLength="187" x="699" y="984.625">break loop over work and exit</text><rect fill="#EEEEEE" filter="url(#f1)" height="3" style="stroke: #EEEEEE; stroke-width: 1.0;" width="984" x="0" y="1035.3242"/><line style="stroke: #000000; stroke-width: 1.0;" x1="0" x2="984" y1="1035.3242" y2="1035.3242"/><line style="stroke: #000000; stroke-width: 1.0;" x1="0" x2="984" y1="1038.3242" y2="1038.3242"/><rect fill="#EEEEEE" filter="url(#f1)" height="23.1328" style="stroke: #000000; stroke-width: 2.0;" width="106" x="439" y="1024.7578"/><text fill="#000000" font-family="sans-serif" font-size="13" font-weight="bold" lengthAdjust="spacingAndGlyphs" textLength="87" x="445" y="1041.7578">Termination</text><polygon fill="#A80036" points="81.5,1074.8906,71.5,1078.8906,81.5,1082.8906,77.5,1078.8906" style="stroke: #A80036; stroke-width: 1.0;"/><line style="stroke: #A80036; stroke-width: 1.0;" x1="75.5" x2="798" y1="1078.8906" y2="1078.8906"/><text fill="#000000" font-family="sans-serif" font-size="13" lengthAdjust="spacingAndGlyphs" textLength="39" x="87.5" y="1074.8906">return</text></g></svg>