<?xml version="1.0" encoding="UTF-8" standalone="yes"?><svg xmlns="http://www.w3.org/2000/svg" xmlns:xlink="http://www.w3.org/1999/xlink" height="971pt" style="width:694px;height:971px;" version="1.1" viewBox="0 0 694 971" width="694pt"><defs><filter height="300%" id="f1" width="300%" x="-1" y="-1"><feGaussianBlur result="blurOut" stdDeviation="2.0"/><feColorMatrix in="blurOut" result="blurOut2" type="matrix" values="0 0 0 0 0 0 0 0 0 0 0 0 0 0 0 0 0 0 .4 0"/><feOffset dx="4.0" dy="4.0" in="blurOut2" result="blurOut3"/><feBlend in="SourceGraphic" in2="blurOut3" mode="normal"/></filter></defs><g><ellipse cx="336" cy="20" fill="#000000" filter="url(#f1)" rx="10" ry="10" style="stroke: none; stroke-width: 1.0;"/><polygon fill="#FBFB77" filter="url(#f1)" points="442.5,40,442.5,140.7969,685.5,140.7969,685.5,50,675.5,40,442.5,40" style="stroke: #A80036; stroke-width: 1.0;"/><polygon fill="#FBFB77" points="442.5,40,442.5,86.3984,422.5,90.3984,442.5,94.3984,442.5,140.7969,685.5,140.7969,685.5,50,675.5,40,442.5,40" style="stroke: #A80036; stroke-width: 1.0;"/><line style="stroke: #A80036; stroke-width: 1.0;" x1="675.5" x2="675.5" y1="40" y2="50"/><line style="stroke: #A80036; stroke-width: 1.0;" x1="675.5" x2="685.5" y1="50" y2="50"/><ellipse cx="454" cy="52.6328" fill="#000000" rx="2.5" ry="2.5" style="stroke: #000000; stroke-width: 0.0;"/><text fill="#000000" font-family="sans-serif" font-size="13" lengthAdjust="spacingAndGlyphs" textLength="115" x="459.5" y="57.0669">started in parallel;</text><ellipse cx="454" cy="67.7656" fill="#000000" rx="2.5" ry="2.5" style="stroke: #000000; stroke-width: 0.0;"/><text fill="#000000" font-family="sans-serif" font-size="13" lengthAdjust="spacingAndGlyphs" textLength="92" x="459.5" y="72.1997">previously set:</text><text fill="#000000" font-family="sans-serif" font-size="13" lengthAdjust="spacingAndGlyphs" textLength="18" x="448.5" y="87.3325">* *</text><text fill="#000000" font-family="sans-serif" font-size="13" font-weight="bold" lengthAdjust="spacingAndGlyphs" textLength="8" x="470.5" y="87.3325">T</text><text fill="#000000" font-family="sans-serif" font-size="13" lengthAdjust="spacingAndGlyphs" textLength="122" x="482.5" y="87.3325">number time steps</text><text fill="#000000" font-family="sans-serif" font-size="13" lengthAdjust="spacingAndGlyphs" textLength="18" x="448.5" y="102.4653">* *</text><text fill="#000000" font-family="sans-serif" font-size="13" font-weight="bold" lengthAdjust="spacingAndGlyphs" textLength="13" x="470.5" y="102.4653">M</text><text fill="#000000" font-family="sans-serif" font-size="13" lengthAdjust="spacingAndGlyphs" textLength="183" x="487.5" y="102.4653">number nodes per time step</text><text fill="#000000" font-family="sans-serif" font-size="13" lengthAdjust="spacingAndGlyphs" textLength="18" x="448.5" y="117.5981">* *</text><text fill="#FF0000" font-family="sans-serif" font-size="13" font-weight="bold" lengthAdjust="spacingAndGlyphs" textLength="10" x="470.5" y="117.5981">P</text><text fill="#000000" font-family="sans-serif" font-size="13" lengthAdjust="spacingAndGlyphs" textLength="53" x="484.5" y="117.5981">problem</text><text fill="#000000" font-family="sans-serif" font-size="13" lengthAdjust="spacingAndGlyphs" textLength="18" x="448.5" y="132.731">* *</text><text fill="#000000" font-family="sans-serif" font-size="13" font-weight="bold" lengthAdjust="spacingAndGlyphs" textLength="16" x="470.5" y="132.731">dt</text><text fill="#000000" font-family="sans-serif" font-size="13" lengthAdjust="spacingAndGlyphs" textLength="154" x="490.5" y="132.731">width of a solver interval</text><rect fill="#FEFECE" filter="url(#f1)" height="33.9688" rx="12.5" ry="12.5" style="stroke: #A80036; stroke-width: 1.5;" width="173" x="249.5" y="73.4141"/><text fill="#008000" font-family="sans-serif" font-size="12" font-weight="bold" lengthAdjust="spacingAndGlyphs" textLength="44" x="259.5" y="94.5527">Solver</text><text fill="#000000" font-family="sans-serif" font-size="12" font-weight="bold" lengthAdjust="spacingAndGlyphs" textLength="29" x="303.5" y="94.5527">.run</text><text fill="#000000" font-family="sans-serif" font-size="12" lengthAdjust="spacingAndGlyphs" textLength="80" x="332.5" y="94.5527">(Core) called</text><polygon fill="#FEFECE" filter="url(#f1)" points="269.5,231.7109,402.5,231.7109,414.5,243.7109,402.5,255.7109,269.5,255.7109,257.5,243.7109,269.5,231.7109" style="stroke: #A80036; stroke-width: 1.5;"/><text fill="#008000" font-family="sans-serif" font-size="11" font-weight="bold" lengthAdjust="spacingAndGlyphs" textLength="8" x="269.5" y="247.519">S</text><text fill="#000000" font-family="sans-serif" font-size="11" lengthAdjust="spacingAndGlyphs" textLength="125" x="277.5" y="247.519">.last_flag == iterating</text><text fill="#000000" font-family="sans-serif" font-size="11" lengthAdjust="spacingAndGlyphs" textLength="20" x="237.5" y="241.9063">yes</text><text fill="#000000" font-family="sans-serif" font-size="11" lengthAdjust="spacingAndGlyphs" textLength="14" x="414.5" y="241.9063">no</text><rect fill="#AAAAAA" filter="url(#f1)" height="47.9375" rx="12.5" ry="12.5" style="stroke: #A80036; stroke-width: 1.5;" width="142" x="165.75" y="310.1953"/><text fill="#000000" font-family="sans-serif" font-size="12" lengthAdjust="spacingAndGlyphs" textLength="122" x="175.75" y="331.334">continue with same</text><text fill="#000000" font-family="sans-serif" font-size="12" lengthAdjust="spacingAndGlyphs" textLength="110" x="179.75" y="345.3027">interval as before</text><rect fill="#AAAAAA" filter="url(#f1)" height="33.9688" rx="12.5" ry="12.5" style="stroke: #A80036; stroke-width: 1.5;" width="129" x="370.75" y="275.7109"/><text fill="#000000" font-family="sans-serif" font-size="12" lengthAdjust="spacingAndGlyphs" textLength="109" x="380.75" y="296.8496">start new interval</text><rect fill="#FEFECE" filter="url(#f1)" height="47.9375" rx="12.5" ry="12.5" style="stroke: #A80036; stroke-width: 1.5;" width="165" x="352.75" y="344.6797"/><text fill="#000000" font-family="sans-serif" font-size="12" lengthAdjust="spacingAndGlyphs" textLength="99" x="370.75" y="365.8184">set new interval</text><text fill="#008000" font-family="sans-serif" font-size="12" font-weight="bold" lengthAdjust="spacingAndGlyphs" textLength="9" x="362.75" y="379.7871">S</text><text fill="#000000" font-family="sans-serif" font-size="12" lengthAdjust="spacingAndGlyphs" textLength="22" x="371.75" y="379.7871">.I=[</text><text fill="#FFA500" font-family="sans-serif" font-size="12" font-weight="bold" lengthAdjust="spacingAndGlyphs" textLength="29" x="393.75" y="379.7871">msg</text><text fill="#000000" font-family="sans-serif" font-size="12" lengthAdjust="spacingAndGlyphs" textLength="13" x="422.75" y="379.7871">.t,</text><text fill="#FFA500" font-family="sans-serif" font-size="12" font-weight="bold" lengthAdjust="spacingAndGlyphs" textLength="29" x="439.75" y="379.7871">msg</text><text fill="#000000" font-family="sans-serif" font-size="12" lengthAdjust="spacingAndGlyphs" textLength="19" x="468.75" y="379.7871">.t+</text><text fill="#000000" font-family="sans-serif" font-size="12" font-weight="bold" lengthAdjust="spacingAndGlyphs" textLength="15" x="487.75" y="379.7871">dt</text><text fill="#000000" font-family="sans-serif" font-size="12" lengthAdjust="spacingAndGlyphs" textLength="5" x="502.75" y="379.7871">]</text><polygon fill="#FEFECE" filter="url(#f1)" points="336,402.6172,348,414.6172,336,426.6172,324,414.6172,336,402.6172" style="stroke: #A80036; stroke-width: 1.5;"/><rect fill="#FEFECE" filter="url(#f1)" height="47.9375" rx="12.5" ry="12.5" style="stroke: #A80036; stroke-width: 1.5;" width="217" x="227.5" y="547.0742"/><text fill="#000000" font-family="sans-serif" font-size="12" lengthAdjust="spacingAndGlyphs" textLength="94" x="237.5" y="568.2129">integrate node</text><text fill="#000000" font-family="sans-serif" font-size="12" font-style="italic" lengthAdjust="spacingAndGlyphs" textLength="11" x="335.5" y="568.2129">m</text><text fill="#000000" font-family="sans-serif" font-size="12" lengthAdjust="spacingAndGlyphs" textLength="75" x="350.5" y="568.2129">of time step</text><text fill="#000000" font-family="sans-serif" font-size="12" font-style="italic" lengthAdjust="spacingAndGlyphs" textLength="5" x="429.5" y="568.2129">t</text><text fill="#000000" font-family="sans-serif" font-size="12" lengthAdjust="spacingAndGlyphs" textLength="25" x="305.5" y="582.1816">with</text><text fill="#000000" font-family="sans-serif" font-size="12" font-style="italic" lengthAdjust="spacingAndGlyphs" textLength="29" x="334.5" y="582.1816">Core</text><polygon fill="#FEFECE" filter="url(#f1)" points="283,492.2266,389,492.2266,401,505.0313,389,517.8359,283,517.8359,271,505.0313,283,492.2266" style="stroke: #A80036; stroke-width: 1.5;"/><text fill="#000000" font-family="sans-serif" font-size="11" font-weight="bold" lengthAdjust="spacingAndGlyphs" textLength="106" x="283" y="503.2266">Integration Loop</text><text fill="#000000" font-family="sans-serif" font-size="11" lengthAdjust="spacingAndGlyphs" textLength="67" x="299" y="516.0313">for m=1,...,</text><text fill="#000000" font-family="sans-serif" font-size="11" font-weight="bold" lengthAdjust="spacingAndGlyphs" textLength="11" x="366" y="516.0313">M</text><polygon fill="#A80036" points="452.5,550.6406,456.5,540.6406,460.5,550.6406,456.5,546.6406" style="stroke: #A80036; stroke-width: 1.0;"/><polygon fill="#A80036" points="211.5,554.6406,215.5,564.6406,219.5,554.6406,215.5,558.6406" style="stroke: #A80036; stroke-width: 1.0;"/><polygon fill="#FEFECE" filter="url(#f1)" points="283,446.6172,389,446.6172,401,459.4219,389,472.2266,283,472.2266,271,459.4219,283,446.6172" style="stroke: #A80036; stroke-width: 1.5;"/><text fill="#000000" font-family="sans-serif" font-size="11" font-weight="bold" lengthAdjust="spacingAndGlyphs" textLength="106" x="283" y="457.6172">Time Steps Loop</text><text fill="#000000" font-family="sans-serif" font-size="11" lengthAdjust="spacingAndGlyphs" textLength="60" x="303" y="470.4219">for t=1,...,</text><text fill="#000000" font-family="sans-serif" font-size="11" font-weight="bold" lengthAdjust="spacingAndGlyphs" textLength="8" x="363" y="470.4219">T</text><polygon fill="#A80036" points="464.5,537.8359,468.5,527.8359,472.5,537.8359,468.5,533.8359" style="stroke: #A80036; stroke-width: 1.0;"/><polygon fill="#A80036" points="187.5,541.8359,191.5,551.8359,195.5,541.8359,191.5,545.8359" style="stroke: #A80036; stroke-width: 1.0;"/><polygon fill="#FEFECE" filter="url(#f1)" points="310.5,659.0117,361.5,659.0117,373.5,671.0117,361.5,683.0117,310.5,683.0117,298.5,671.0117,310.5,659.0117" style="stroke: #A80036; stroke-width: 1.5;"/><text fill="#000000" font-family="sans-serif" font-size="11" lengthAdjust="spacingAndGlyphs" textLength="51" x="310.5" y="674.8198">finished?</text><text fill="#000000" font-family="sans-serif" font-size="11" lengthAdjust="spacingAndGlyphs" textLength="20" x="278.5" y="669.207">yes</text><text fill="#000000" font-family="sans-serif" font-size="11" lengthAdjust="spacingAndGlyphs" textLength="14" x="373.5" y="669.207">no</text><polygon fill="#FEFECE" filter="url(#f1)" points="169.5,703.0117,234.5,703.0117,246.5,715.0117,234.5,727.0117,169.5,727.0117,157.5,715.0117,169.5,703.0117" style="stroke: #A80036; stroke-width: 1.5;"/><text fill="#000000" font-family="sans-serif" font-size="11" lengthAdjust="spacingAndGlyphs" textLength="65" x="169.5" y="718.8198">converged?</text><text fill="#000000" font-family="sans-serif" font-size="11" lengthAdjust="spacingAndGlyphs" textLength="20" x="137.5" y="713.207">yes</text><text fill="#000000" font-family="sans-serif" font-size="11" lengthAdjust="spacingAndGlyphs" textLength="37" x="246.5" y="713.207">failed?</text><rect fill="#FEFECE" filter="url(#f1)" height="33.9688" rx="12.5" ry="12.5" style="stroke: #A80036; stroke-width: 1.5;" width="169" x="26" y="747.0117"/><text fill="#008000" font-family="sans-serif" font-size="12" font-weight="bold" lengthAdjust="spacingAndGlyphs" textLength="9" x="36" y="768.1504">S</text><text fill="#000000" font-family="sans-serif" font-size="12" lengthAdjust="spacingAndGlyphs" textLength="140" x="45" y="768.1504">.last_flag = converged</text><rect fill="#FEFECE" filter="url(#f1)" height="33.9688" rx="12.5" ry="12.5" style="stroke: #A80036; stroke-width: 1.5;" width="137" x="225" y="747.0117"/><text fill="#008000" font-family="sans-serif" font-size="12" font-weight="bold" lengthAdjust="spacingAndGlyphs" textLength="9" x="235" y="768.1504">S</text><text fill="#000000" font-family="sans-serif" font-size="12" lengthAdjust="spacingAndGlyphs" textLength="108" x="244" y="768.1504">.last_flag = failed</text><polygon fill="#FEFECE" filter="url(#f1)" points="202,790.9805,214,802.9805,202,814.9805,190,802.9805,202,790.9805" style="stroke: #A80036; stroke-width: 1.5;"/><rect fill="#FEFECE" filter="url(#f1)" height="33.9688" rx="12.5" ry="12.5" style="stroke: #A80036; stroke-width: 1.5;" width="156" x="392" y="747.0117"/><text fill="#008000" font-family="sans-serif" font-size="12" font-weight="bold" lengthAdjust="spacingAndGlyphs" textLength="9" x="402" y="768.1504">S</text><text fill="#000000" font-family="sans-serif" font-size="12" lengthAdjust="spacingAndGlyphs" textLength="127" x="411" y="768.1504">.last_flag = iterating</text><polygon fill="#FEFECE" filter="url(#f1)" points="336,824.9805,348,836.9805,336,848.9805,324,836.9805,336,824.9805" style="stroke: #A80036; stroke-width: 1.5;"/><rect fill="#FEFECE" filter="url(#f1)" height="33.9688" rx="12.5" ry="12.5" style="stroke: #A80036; stroke-width: 1.5;" width="278" x="197" y="868.9805"/><text fill="#008000" font-family="sans-serif" font-size="12" font-weight="bold" lengthAdjust="spacingAndGlyphs" textLength="9" x="207" y="890.1191">S</text><text fill="#000000" font-family="sans-serif" font-size="12" lengthAdjust="spacingAndGlyphs" textLength="4" x="216" y="890.1191">.</text><text fill="#0000FF" font-family="sans-serif" font-size="12" font-weight="bold" lengthAdjust="spacingAndGlyphs" textLength="40" x="220" y="890.1191">comm</text><text fill="#000000" font-family="sans-serif" font-size="12" font-weight="bold" lengthAdjust="spacingAndGlyphs" textLength="40" x="260" y="890.1191">.send</text><text fill="#000000" font-family="sans-serif" font-size="12" lengthAdjust="spacingAndGlyphs" textLength="20" x="300" y="890.1191">(t=</text><text fill="#008000" font-family="sans-serif" font-size="12" font-weight="bold" lengthAdjust="spacingAndGlyphs" textLength="9" x="320" y="890.1191">S</text><text fill="#000000" font-family="sans-serif" font-size="12" lengthAdjust="spacingAndGlyphs" textLength="66" x="329" y="890.1191">.I[1], flag=</text><text fill="#008000" font-family="sans-serif" font-size="12" font-weight="bold" lengthAdjust="spacingAndGlyphs" textLength="9" x="395" y="890.1191">S</text><text fill="#000000" font-family="sans-serif" font-size="12" lengthAdjust="spacingAndGlyphs" textLength="61" x="404" y="890.1191">.last_flag)</text><polygon fill="#FEFECE" filter="url(#f1)" points="260.5,160.7969,411.5,160.7969,423.5,173.6016,411.5,186.4063,260.5,186.4063,248.5,173.6016,260.5,160.7969" style="stroke: #A80036; stroke-width: 1.5;"/><text fill="#FFA500" font-family="sans-serif" font-size="11" font-weight="bold" lengthAdjust="spacingAndGlyphs" textLength="26" x="340" y="197.4063">msg</text><text fill="#000000" font-family="sans-serif" font-size="11" lengthAdjust="spacingAndGlyphs" textLength="76" x="366" y="197.4063">.flag != failed</text><text fill="#000000" font-family="sans-serif" font-size="11" lengthAdjust="spacingAndGlyphs" textLength="12" x="340" y="210.2109">or</text><text fill="#FFA500" font-family="sans-serif" font-size="11" font-weight="bold" lengthAdjust="spacingAndGlyphs" textLength="26" x="356" y="210.2109">msg</text><text fill="#000000" font-family="sans-serif" font-size="11" lengthAdjust="spacingAndGlyphs" textLength="17" x="382" y="210.2109">.t+</text><text fill="#000000" font-family="sans-serif" font-size="11" font-weight="bold" lengthAdjust="spacingAndGlyphs" textLength="13" x="399" y="210.2109">dt</text><text fill="#000000" font-family="sans-serif" font-size="11" lengthAdjust="spacingAndGlyphs" textLength="18" x="416" y="210.2109">&lt;=</text><text fill="#FF0000" font-family="sans-serif" font-size="11" font-weight="bold" lengthAdjust="spacingAndGlyphs" textLength="8" x="438" y="210.2109">P</text><text fill="#000000" font-family="sans-serif" font-size="11" lengthAdjust="spacingAndGlyphs" textLength="15" x="446" y="210.2109">.t1</text><text fill="#000000" font-family="sans-serif" font-size="11" lengthAdjust="spacingAndGlyphs" textLength="0" x="296.5" y="171.7969"/><text fill="#000000" font-family="sans-serif" font-size="11" font-weight="bold" lengthAdjust="spacingAndGlyphs" textLength="68" x="296.5" y="171.7969">Work Loop</text><text fill="#FFA500" font-family="sans-serif" font-size="11" font-weight="bold" lengthAdjust="spacingAndGlyphs" textLength="26" x="260.5" y="184.6016">msg</text><text fill="#000000" font-family="sans-serif" font-size="11" lengthAdjust="spacingAndGlyphs" textLength="9" x="290.5" y="184.6016">=</text><text fill="#008000" font-family="sans-serif" font-size="11" font-weight="bold" lengthAdjust="spacingAndGlyphs" textLength="8" x="303.5" y="184.6016">S</text><text fill="#000000" font-family="sans-serif" font-size="11" lengthAdjust="spacingAndGlyphs" textLength="4" x="311.5" y="184.6016">.</text><text fill="#0000FF" font-family="sans-serif" font-size="11" font-weight="bold" lengthAdjust="spacingAndGlyphs" textLength="37" x="315.5" y="184.6016">comm</text><text fill="#000000" font-family="sans-serif" font-size="11" font-weight="bold" lengthAdjust="spacingAndGlyphs" textLength="51" x="352.5" y="184.6016">.receive</text><text fill="#000000" font-family="sans-serif" font-size="11" lengthAdjust="spacingAndGlyphs" textLength="8" x="403.5" y="184.6016">()</text><text fill="#000000" font-family="sans-serif" font-size="11" lengthAdjust="spacingAndGlyphs" textLength="112" x="136.5" y="171.7969">no more work to do</text><polygon fill="#A80036" points="556,574.0469,560,564.0469,564,574.0469,560,570.0469" style="stroke: #A80036; stroke-width: 1.0;"/><polygon fill="#A80036" points="10,578.0469,14,588.0469,18,578.0469,14,582.0469" style="stroke: #A80036; stroke-width: 1.0;"/><ellipse cx="336" cy="954.9492" fill="none" filter="url(#f1)" rx="10" ry="10" style="stroke: #000000; stroke-width: 1.0;"/><ellipse cx="336.5" cy="955.4492" fill="#000000" filter="url(#f1)" rx="6" ry="6" style="stroke: none; stroke-width: 1.0;"/><line style="stroke: #A80036; stroke-width: 1.5;" x1="336" x2="336" y1="30" y2="73.4141"/><polygon fill="#A80036" points="332,63.4141,336,73.4141,340,63.4141,336,67.4141" style="stroke: #A80036; stroke-width: 1.0;"/><line style="stroke: #A80036; stroke-width: 1.5;" x1="435.25" x2="435.25" y1="309.6797" y2="344.6797"/><polygon fill="#A80036" points="431.25,334.6797,435.25,344.6797,439.25,334.6797,435.25,338.6797" style="stroke: #A80036; stroke-width: 1.0;"/><line style="stroke: #A80036; stroke-width: 1.5;" x1="236.75" x2="257.5" y1="243.7109" y2="243.7109"/><line style="stroke: #A80036; stroke-width: 1.5;" x1="236.75" x2="236.75" y1="243.7109" y2="310.1953"/><polygon fill="#A80036" points="232.75,300.1953,236.75,310.1953,240.75,300.1953,236.75,304.1953" style="stroke: #A80036; stroke-width: 1.0;"/><line style="stroke: #A80036; stroke-width: 1.5;" x1="414.5" x2="435.25" y1="243.7109" y2="243.7109"/><line style="stroke: #A80036; stroke-width: 1.5;" x1="435.25" x2="435.25" y1="243.7109" y2="275.7109"/><polygon fill="#A80036" points="431.25,265.7109,435.25,275.7109,439.25,265.7109,435.25,269.7109" style="stroke: #A80036; stroke-width: 1.0;"/><line style="stroke: #A80036; stroke-width: 1.5;" x1="236.75" x2="236.75" y1="358.1328" y2="414.6172"/><line style="stroke: #A80036; stroke-width: 1.5;" x1="236.75" x2="324" y1="414.6172" y2="414.6172"/><polygon fill="#A80036" points="314,410.6172,324,414.6172,314,418.6172,318,414.6172" style="stroke: #A80036; stroke-width: 1.0;"/><line style="stroke: #A80036; stroke-width: 1.5;" x1="435.25" x2="435.25" y1="392.6172" y2="414.6172"/><line style="stroke: #A80036; stroke-width: 1.5;" x1="348" x2="435.25" y1="414.6172" y2="414.6172"/><polygon fill="#A80036" points="358,410.6172,348,414.6172,358,418.6172,354,414.6172" style="stroke: #A80036; stroke-width: 1.0;"/><line style="stroke: #A80036; stroke-width: 1.5;" x1="336" x2="336" y1="517.8359" y2="547.0742"/><polygon fill="#A80036" points="332,537.0742,336,547.0742,340,537.0742,336,541.0742" style="stroke: #A80036; stroke-width: 1.0;"/><line style="stroke: #A80036; stroke-width: 1.5;" x1="336" x2="336" y1="595.0117" y2="605.0117"/><line style="stroke: #A80036; stroke-width: 1.5;" x1="336" x2="456.5" y1="605.0117" y2="605.0117"/><line style="stroke: #A80036; stroke-width: 1.5;" x1="456.5" x2="456.5" y1="505.0313" y2="605.0117"/><line style="stroke: #A80036; stroke-width: 1.5;" x1="401" x2="456.5" y1="505.0313" y2="505.0313"/><polygon fill="#A80036" points="411,501.0313,401,505.0313,411,509.0313,407,505.0313" style="stroke: #A80036; stroke-width: 1.0;"/><line style="stroke: #A80036; stroke-width: 1.5;" x1="215.5" x2="271" y1="505.0313" y2="505.0313"/><line style="stroke: #A80036; stroke-width: 1.5;" x1="215.5" x2="215.5" y1="505.0313" y2="622.0117"/><line style="stroke: #A80036; stroke-width: 1.5;" x1="215.5" x2="336" y1="622.0117" y2="622.0117"/><line style="stroke: #A80036; stroke-width: 1.5;" x1="336" x2="336" y1="472.2266" y2="492.2266"/><polygon fill="#A80036" points="332,482.2266,336,492.2266,340,482.2266,336,486.2266" style="stroke: #A80036; stroke-width: 1.0;"/><line style="stroke: #A80036; stroke-width: 1.5;" x1="336" x2="336" y1="622.0117" y2="627.0117"/><line style="stroke: #A80036; stroke-width: 1.5;" x1="336" x2="468.5" y1="627.0117" y2="627.0117"/><line style="stroke: #A80036; stroke-width: 1.5;" x1="468.5" x2="468.5" y1="459.4219" y2="627.0117"/><line style="stroke: #A80036; stroke-width: 1.5;" x1="401" x2="468.5" y1="459.4219" y2="459.4219"/><polygon fill="#A80036" points="411,455.4219,401,459.4219,411,463.4219,407,459.4219" style="stroke: #A80036; stroke-width: 1.0;"/><line style="stroke: #A80036; stroke-width: 1.5;" x1="191.5" x2="271" y1="459.4219" y2="459.4219"/><line style="stroke: #A80036; stroke-width: 1.5;" x1="191.5" x2="191.5" y1="459.4219" y2="644.0117"/><line style="stroke: #A80036; stroke-width: 1.5;" x1="191.5" x2="336" y1="644.0117" y2="644.0117"/><line style="stroke: #A80036; stroke-width: 1.5;" x1="336" x2="336" y1="426.6172" y2="446.6172"/><polygon fill="#A80036" points="332,436.6172,336,446.6172,340,436.6172,336,440.6172" style="stroke: #A80036; stroke-width: 1.0;"/><line style="stroke: #A80036; stroke-width: 1.5;" x1="110.5" x2="157.5" y1="715.0117" y2="715.0117"/><line style="stroke: #A80036; stroke-width: 1.5;" x1="110.5" x2="110.5" y1="715.0117" y2="747.0117"/><polygon fill="#A80036" points="106.5,737.0117,110.5,747.0117,114.5,737.0117,110.5,741.0117" style="stroke: #A80036; stroke-width: 1.0;"/><line style="stroke: #A80036; stroke-width: 1.5;" x1="246.5" x2="293.5" y1="715.0117" y2="715.0117"/><line style="stroke: #A80036; stroke-width: 1.5;" x1="293.5" x2="293.5" y1="715.0117" y2="747.0117"/><polygon fill="#A80036" points="289.5,737.0117,293.5,747.0117,297.5,737.0117,293.5,741.0117" style="stroke: #A80036; stroke-width: 1.0;"/><line style="stroke: #A80036; stroke-width: 1.5;" x1="110.5" x2="110.5" y1="780.9805" y2="802.9805"/><line style="stroke: #A80036; stroke-width: 1.5;" x1="110.5" x2="190" y1="802.9805" y2="802.9805"/><polygon fill="#A80036" points="180,798.9805,190,802.9805,180,806.9805,184,802.9805" style="stroke: #A80036; stroke-width: 1.0;"/><line style="stroke: #A80036; stroke-width: 1.5;" x1="293.5" x2="293.5" y1="780.9805" y2="802.9805"/><line style="stroke: #A80036; stroke-width: 1.5;" x1="214" x2="293.5" y1="802.9805" y2="802.9805"/><polygon fill="#A80036" points="224,798.9805,214,802.9805,224,806.9805,220,802.9805" style="stroke: #A80036; stroke-width: 1.0;"/><line style="stroke: #A80036; stroke-width: 1.5;" x1="202" x2="298.5" y1="671.0117" y2="671.0117"/><line style="stroke: #A80036; stroke-width: 1.5;" x1="202" x2="202" y1="671.0117" y2="703.0117"/><polygon fill="#A80036" points="198,693.0117,202,703.0117,206,693.0117,202,697.0117" style="stroke: #A80036; stroke-width: 1.0;"/><line style="stroke: #A80036; stroke-width: 1.5;" x1="373.5" x2="470" y1="671.0117" y2="671.0117"/><line style="stroke: #A80036; stroke-width: 1.5;" x1="470" x2="470" y1="671.0117" y2="747.0117"/><polygon fill="#A80036" points="466,737.0117,470,747.0117,474,737.0117,470,741.0117" style="stroke: #A80036; stroke-width: 1.0;"/><line style="stroke: #A80036; stroke-width: 1.5;" x1="202" x2="202" y1="814.9805" y2="836.9805"/><line style="stroke: #A80036; stroke-width: 1.5;" x1="202" x2="324" y1="836.9805" y2="836.9805"/><polygon fill="#A80036" points="314,832.9805,324,836.9805,314,840.9805,318,836.9805" style="stroke: #A80036; stroke-width: 1.0;"/><line style="stroke: #A80036; stroke-width: 1.5;" x1="470" x2="470" y1="780.9805" y2="836.9805"/><line style="stroke: #A80036; stroke-width: 1.5;" x1="348" x2="470" y1="836.9805" y2="836.9805"/><polygon fill="#A80036" points="358,832.9805,348,836.9805,358,840.9805,354,836.9805" style="stroke: #A80036; stroke-width: 1.0;"/><line style="stroke: #A80036; stroke-width: 1.5;" x1="336" x2="336" y1="644.0117" y2="659.0117"/><polygon fill="#A80036" points="332,649.0117,336,659.0117,340,649.0117,336,653.0117" style="stroke: #A80036; stroke-width: 1.0;"/><line style="stroke: #A80036; stroke-width: 1.5;" x1="336" x2="336" y1="848.9805" y2="868.9805"/><polygon fill="#A80036" points="332,858.9805,336,868.9805,340,858.9805,336,862.9805" style="stroke: #A80036; stroke-width: 1.0;"/><line style="stroke: #A80036; stroke-width: 1.5;" x1="336" x2="336" y1="186.4063" y2="231.7109"/><polygon fill="#A80036" points="332,221.7109,336,231.7109,340,221.7109,336,225.7109" style="stroke: #A80036; stroke-width: 1.0;"/><line style="stroke: #A80036; stroke-width: 1.5;" x1="336" x2="336" y1="902.9492" y2="912.9492"/><line style="stroke: #A80036; stroke-width: 1.5;" x1="336" x2="560" y1="912.9492" y2="912.9492"/><line style="stroke: #A80036; stroke-width: 1.5;" x1="560" x2="560" y1="173.6016" y2="912.9492"/><line style="stroke: #A80036; stroke-width: 1.5;" x1="423.5" x2="560" y1="173.6016" y2="173.6016"/><polygon fill="#A80036" points="433.5,169.6016,423.5,173.6016,433.5,177.6016,429.5,173.6016" style="stroke: #A80036; stroke-width: 1.0;"/><line style="stroke: #A80036; stroke-width: 1.5;" x1="14" x2="248.5" y1="173.6016" y2="173.6016"/><line style="stroke: #A80036; stroke-width: 1.5;" x1="14" x2="14" y1="173.6016" y2="929.9492"/><line style="stroke: #A80036; stroke-width: 1.5;" x1="14" x2="336" y1="929.9492" y2="929.9492"/><line style="stroke: #A80036; stroke-width: 1.5;" x1="336" x2="336" y1="107.3828" y2="160.7969"/><polygon fill="#A80036" points="332,150.7969,336,160.7969,340,150.7969,336,154.7969" style="stroke: #A80036; stroke-width: 1.0;"/><line style="stroke: #A80036; stroke-width: 1.5;" x1="336" x2="336" y1="929.9492" y2="944.9492"/><polygon fill="#A80036" points="332,934.9492,336,944.9492,340,934.9492,336,938.9492" style="stroke: #A80036; stroke-width: 1.0;"/></g></svg>